Coordinates
version=1
nRows=17
nColumns=38
inDegrees=no

Units are S.I. units (second, meters, Newtons, ...)
If the header above contains a line with 'inDegrees', this indicates whether rotational values are in degrees (yes) or radians (no).

endheader
time	pelvis_tilt	pelvis_list	pelvis_rotation	pelvis_tx	pelvis_ty	pelvis_tz	hip_flexion_r	hip_adduction_r	hip_rotation_r	knee_angle_r	ankle_angle_r	subtalar_angle_r	mtp_angle_r	hip_flexion_l	hip_adduction_l	hip_rotation_l	knee_angle_l	ankle_angle_l	subtalar_angle_l	mtp_angle_l	lumbar_extension	lumbar_bending	lumbar_rotation	arm_flex_r	arm_add_r	arm_rot_r	elbow_flex_r	pro_sup_r	wrist_flex_r	wrist_dev_r	arm_flex_l	arm_add_l	arm_rot_l	elbow_flex_l	pro_sup_l	wrist_flex_l	wrist_dev_l
75	-0.772853	1.35958	-0.667687	0.795638	-0.724884	0.930545	-0.332059	0.151203	-0.174412	0	-0.400694	0	0	-0.282418	-0.303043	-0.388889	0.11708	-0.253887	0	0	-0.182718	0.27558	-0.128943	-0.0417552	-0.238225	0.0877074	0.762223	1.5708	0	0	0.149387	-0.165522	0.614189	0.44636	1.5708	0	0
75.01	-0.430235	1.39552	-0.968044	0.806576	-0.718188	0.935025	-0.334682	0.0647948	-0.25773	0.0250648	-0.387648	0	0	-0.308163	-0.214642	-0.285587	0.0364974	-0.324154	0	0	-0.209701	0.214404	-0.182753	-0.00747414	-0.233398	0.0978294	0.734808	1.5708	0	0	0.167766	-0.160445	0.607401	0.430666	1.5708	0	0
75.02	-0.398374	1.37843	-1.03315	0.802585	-0.722324	0.937172	-0.361841	0.0643503	-0.22874	0.0132154	-0.395813	0	0	-0.31174	-0.219186	-0.355771	0.113217	-0.295554	0	0	-0.228419	0.209724	-0.152423	-0.0112904	-0.232808	0.101117	0.733436	1.5708	0	0	0.158522	-0.163052	0.604427	0.436178	1.5708	0	0
75.03	-0.468527	1.38505	-0.962247	0.803115	-0.722888	0.935575	-0.348402	0.0722559	-0.22434	0.013543	-0.395759	0	0	-0.25416	-0.232953	-0.361355	0.166659	-0.284186	0	0	-0.213667	0.220067	-0.161445	-0.00986829	-0.23621	0.108959	0.734462	1.5708	0	0	0.149825	-0.162268	0.594291	0.440634	1.5708	0	0
75.04	-0.405909	1.37972	-1.02684	0.802801	-0.722817	0.936934	-0.360461	0.0642609	-0.226499	0.012987	-0.396292	0	0	-0.308958	-0.220251	-0.360693	0.118631	-0.282945	0	0	-0.225526	0.209946	-0.153703	-0.0105487	-0.233399	0.103732	0.730794	1.5708	0	0	0.155768	-0.162464	0.603536	0.437043	1.5708	0	0
75.05	-0.794822	1.38418	-0.60165	0.802218	-0.720362	0.928742	-0.299878	0.136648	-0.219764	0.0104852	-0.389554	0	0	-0.264525	-0.286748	-0.307212	0.0532564	-0.286002	0	0	-0.15948	0.26655	-0.183156	-0.0230541	-0.235477	0.0951677	0.74335	1.5708	0	0	0.154205	-0.163916	0.614996	0.442008	1.5708	0	0
75.06	-0.811737	1.38507	-0.587692	0.802366	-0.721001	0.928488	-0.297202	0.136573	-0.21699	0.0108886	-0.388587	0	0	-0.266996	-0.28516	-0.30211	0.0437794	-0.289028	0	0	-0.156679	0.267828	-0.182853	-0.0238716	-0.237003	0.0963298	0.744606	1.5708	0	0	0.15105	-0.163257	0.61399	0.443165	1.5708	0	0
75.07	-0.414877	1.38344	-1.01899	0.803273	-0.723528	0.936794	-0.356218	0.0627032	-0.225033	0.0143732	-0.3947	0	0	-0.3072	-0.217929	-0.359013	0.114454	-0.288107	0	0	-0.222212	0.209949	-0.160595	-0.00653828	-0.233311	0.108973	0.726671	1.5708	0	0	0.149469	-0.163295	0.60059	0.439831	1.5708	0	0
75.08	-0.812262	1.385	-0.585979	0.802703	-0.721186	0.928407	-0.297272	0.13672	-0.217499	0.0109065	-0.389322	0	0	-0.262639	-0.287273	-0.312473	0.0544693	-0.28527	0	0	-0.156665	0.267791	-0.18594	-0.0229389	-0.23672	0.0975407	0.742853	1.5708	0	0	0.149001	-0.163448	0.612566	0.444632	1.5708	0	0
75.09	-0.418291	1.39492	-0.979435	0.807562	-0.719367	0.934987	-0.337935	0.0625489	-0.258023	0.0255396	-0.385992	0	0	-0.311131	-0.212391	-0.2864	0.0376049	-0.321519	0	0	-0.209829	0.211408	-0.188004	-0.00619331	-0.231988	0.0973947	0.727874	1.5708	0	0	0.163908	-0.161109	0.619447	0.432068	1.5708	0	0
75.1	-0.427271	1.39564	-0.97125	0.807818	-0.719735	0.934814	-0.336685	0.0629209	-0.257429	0.0257608	-0.38586	0	0	-0.310935	-0.212656	-0.287667	0.0360184	-0.323373	0	0	-0.208664	0.212429	-0.188137	-0.00691096	-0.233006	0.0975271	0.72884	1.5708	0	0	0.162423	-0.160521	0.61948	0.432415	1.5708	0	0
75.11	-0.490349	1.39871	-0.902522	0.808732	-0.719522	0.933258	-0.326774	0.0714509	-0.258102	0.0263976	-0.38435	0	0	-0.284432	-0.223833	-0.277795	0.0424182	-0.327406	0	0	-0.197693	0.222157	-0.194001	-0.0103518	-0.236794	0.0975786	0.735344	1.5708	0	0	0.160778	-0.158885	0.619849	0.433542	1.5708	0	0
75.12	-0.496906	1.39978	-0.895877	0.808907	-0.719662	0.933135	-0.324915	0.0714468	-0.257728	0.0272296	-0.383631	0	0	-0.282431	-0.224031	-0.2782	0.0433071	-0.327838	0	0	-0.195919	0.222511	-0.194922	-0.0106834	-0.237375	0.0979165	0.735731	1.5708	0	0	0.160137	-0.158282	0.620451	0.432241	1.5708	0	0
75.13	-0.412756	1.39358	-0.983841	0.808284	-0.719612	0.935069	-0.339567	0.0619095	-0.25839	0.0273543	-0.384014	0	0	-0.312991	-0.211649	-0.286303	0.0373201	-0.325268	0	0	-0.213458	0.211599	-0.192632	-0.00452023	-0.233545	0.100314	0.729581	1.5708	0	0	0.161465	-0.162091	0.621052	0.433487	1.5708	0	0
75.14	-0.793244	1.38533	-0.604123	0.803546	-0.721811	0.928858	-0.300148	0.13355	-0.218471	0.0133831	-0.385931	0	0	-0.277719	-0.278324	-0.281109	0.0241207	-0.307183	0	0	-0.160549	0.265223	-0.194753	-0.0173957	-0.236462	0.103305	0.738271	1.5708	0	0	0.144777	-0.165276	0.616859	0.443429	1.5708	0	0
75.15	-0.426641	1.39655	-0.970927	0.808614	-0.720282	0.934758	-0.336111	0.0616501	-0.256659	0.0273363	-0.384635	0	0	-0.309972	-0.211509	-0.288959	0.0374327	-0.322867	0	0	-0.207906	0.211763	-0.192529	-0.00653816	-0.234367	0.09955	0.728881	1.5708	0	0	0.16021	-0.160022	0.623466	0.428947	1.5708	0	0
75.16	-0.374439	1.37625	-1.05259	0.804554	-0.723744	0.937312	-0.367839	0.0609288	-0.231922	0.014931	-0.393587	0	0	-0.316881	-0.215262	-0.352162	0.113279	-0.294196	0	0	-0.231627	0.204803	-0.158559	-0.0138777	-0.232038	0.0937618	0.730328	1.5708	0	0	0.158159	-0.162693	0.631674	0.429808	1.5708	0	0
